<svg version="1.1" class="clearos-svg clearfoundation app-vendor-clearfoundation app-free app-category-server app-sub-category-directory" viewBox="0 0 400 400" preserveAspectRatio="xMinYMin" xmlns="http://www.w3.org/2000/svg" xmlns:xlink= "http://www.w3.org/1999/xlink">
<path fill="#AA0707" d="M91.666,184.647"/>
<path fill="#AA0707" d="M123.245,247.805"/>
<path fill="#AA0707" d="M91.666,184.647"/>
<path fill="#AA0707" d="M123.245,247.805"/>
<g>
	<rect x="128.701" y="243.482" fill="#686868" width="73.221" height="16.535"/>
	<rect x="128.701" y="272.895" fill="#686868" width="73.221" height="16.535"/>
	<rect x="128.701" y="301.693" fill="#686868" width="73.221" height="16.535"/>
	<g>
		<path fill="#686868" d="M319.877,229.518L319.877,229.518V199.96H176.589v12.298h128.663v102.951h-76.047v70.574H98.583V242.134
			H83.967v155.914h39.652h124.447l71.776-65.418V229.518H319.877z M241.6,328.552h62.354L241.6,385.751V328.552z"/>
	</g>
	<path fill="#686868" d="M83.967,199.96h235.91v57.007h63.061c-0.063-2.762-0.467-15.668-0.467-58.179
		c0-42.47-16.068-79.788-71.52-79.788h-4.992V92.383c12.746-8.99,21.143-23.784,21.143-40.648
		c0.031-27.492-22.283-49.783-49.768-49.783c-27.518,0-49.799,22.291-49.799,49.799c0,16.849,8.396,31.642,21.127,40.648v26.617
		h-6.229c-18.814,0-32.781,4.455-43.209,11.92c-10.668-7.463-24.939-11.935-43.923-11.935h-5.001V92.384
		c12.738-8.99,21.158-23.784,21.158-40.648c0.032-27.492-22.274-49.783-49.782-49.783c-27.484,0-49.774,22.291-49.774,49.799
		c0,16.849,8.421,31.642,21.158,40.648v26.617h-6.245c-54.774,0-69.521,37.068-69.521,79.707
		c0.017,25.622-0.232,55.481-0.232,58.243h66.889V199.96H83.967z"/>
</g>
</svg>
